<svg xmlns="http://www.w3.org/2000/svg" width="13.515" height="23.849" viewBox="0 0 13.515 23.849">
  <g id="smartphone" transform="translate(-110.933)">
    <g id="Group_44" data-name="Group 44" transform="translate(115.305 1.192)">
      <g id="Group_43" data-name="Group 43" transform="translate(0)">
        <path id="Path_357" data-name="Path 357" d="M209.173,25.6H205.2a.4.4,0,1,0,0,.795h3.975a.4.4,0,1,0,0-.795Z" transform="translate(-204.801 -25.6)" fill="#fff"/>
      </g>
    </g>
    <g id="Group_46" data-name="Group 46" transform="translate(121.665 1.192)">
      <g id="Group_45" data-name="Group 45">
        <path id="Path_358" data-name="Path 358" d="M342.129,25.6h-.4a.4.4,0,0,0,0,.795h.4a.4.4,0,0,0,0-.795Z" transform="translate(-341.334 -25.6)" fill="#fff"/>
      </g>
    </g>
    <g id="Group_48" data-name="Group 48" transform="translate(116.1 20.272)">
      <g id="Group_47" data-name="Group 47">
        <path id="Path_359" data-name="Path 359" d="M223.951,435.2h-.987a1.1,1.1,0,0,0-1.1,1.1v.192a1.1,1.1,0,0,0,1.1,1.1h.987a1.1,1.1,0,0,0,1.1-1.1V436.3A1.1,1.1,0,0,0,223.951,435.2Zm.3,1.289a.3.3,0,0,1-.3.3h-.987a.3.3,0,0,1-.3-.3V436.3a.3.3,0,0,1,.3-.3h.987a.3.3,0,0,1,.3.3Z" transform="translate(-221.867 -435.2)" fill="#fff"/>
      </g>
    </g>
    <g id="Group_50" data-name="Group 50" transform="translate(110.933)">
      <g id="Group_49" data-name="Group 49">
        <path id="Path_360" data-name="Path 360" d="M123.011,0H112.37a1.439,1.439,0,0,0-1.437,1.437V22.412a1.439,1.439,0,0,0,1.437,1.437h10.641a1.439,1.439,0,0,0,1.437-1.437V1.437A1.439,1.439,0,0,0,123.011,0Zm.642,22.412a.643.643,0,0,1-.642.642H112.37a.643.643,0,0,1-.642-.642V1.437a.643.643,0,0,1,.642-.642h10.641a.643.643,0,0,1,.642.642V22.412Z" transform="translate(-110.933)" fill="#fff"/>
      </g>
    </g>
    <g id="Group_52" data-name="Group 52" transform="translate(110.933 2.385)">
      <g id="Group_51" data-name="Group 51" transform="translate(0)">
        <path id="Path_361" data-name="Path 361" d="M124.051,51.2h-12.72a.4.4,0,0,0-.4.4V68.292a.4.4,0,0,0,.4.4h12.72a.4.4,0,0,0,.4-.4V51.6A.4.4,0,0,0,124.051,51.2Zm-.4,16.695H111.729v-15.9h11.925Z" transform="translate(-110.934 -51.2)" fill="#fff"/>
      </g>
    </g>
  </g>
</svg>
